# xmcd CD database file
#
# Track frame offsets:
#	150
#	23837
#	45387
#	66655
#	88625
#
# Disc length: 1438 seconds
#
# Revision: 0
# Processed by: cddbd v1.5.1PL0 Copyright (c) Steve Scherf et al.
# Submitted via: CDex 1.51
#
DISCID=3b059c05
DTITLE=Syndrome - 蘇生
DYEAR=2000
DGENRE=Rock
TTITLE0=蘇生
TTITLE1=衒学主義者の自称
TTITLE2=deep sky
TTITLE3=[slaever]
TTITLE4=do・mes・tic
EXTD=YEAR: 2000/12/20
EXTT0=
EXTT1=
EXTT2=
EXTT3=
EXTT4=
PLAYORDER=
